<svg width="78" height="72" viewBox="0 0 78 72" fill="none" xmlns="http://www.w3.org/2000/svg"><path d="M13.386 17.769l3.966-3.966 50.32 48.833.744 6.197-6.197-.743-48.833-50.321z" fill="url(#benefit-2-ui-kit_svg__paint0_linear)"></path><path fill-rule="evenodd" clip-rule="evenodd" d="M68.416 68.833l-.743-6.197-50.321-48.833-1.983 1.983 53.047 53.047z" fill="url(#benefit-2-ui-kit_svg__paint1_linear)"></path><path d="M4.214 7.11L6.693 4.63l9.42 8.428-3.47 3.47-8.429-9.42z" fill="url(#benefit-2-ui-kit_svg__paint2_linear)"></path><path d="M8.055 23.346a1 1 0 01-.087-1.315l5.832-7.627a1 1 0 01.187-.187l7.627-5.832a1 1 0 011.314.088l.335.334a1 1 0 01-.074 1.481l-7.247 5.93a1 1 0 00-.14.141l-5.93 7.248a1 1 0 01-1.482.073l-.335-.334z" fill="url(#benefit-2-ui-kit_svg__paint3_linear)"></path><path d="M1.095 7.461a1 1 0 01-.107-1.288l1.89-2.646a1 1 0 01.232-.232l2.646-1.89a1 1 0 011.288.107l.677.677a1 1 0 010 1.414L3.186 8.138a1 1 0 01-1.414 0l-.677-.677z" fill="url(#benefit-2-ui-kit_svg__paint4_linear)"></path><path d="M60.736 14.114l3.966 3.966L15.868 68.4l-6.197.744.744-6.197 50.32-48.833z" fill="url(#benefit-2-ui-kit_svg__paint5_linear)"></path><path fill-rule="evenodd" clip-rule="evenodd" d="M62.719 16.097l-1.983-1.983-50.321 48.833-.744 6.197L62.72 16.097z" fill="url(#benefit-2-ui-kit_svg__paint6_linear)"></path><path d="M71.395 4.942l2.479 2.48-8.428 9.419-3.47-3.47 9.419-8.429z" fill="url(#benefit-2-ui-kit_svg__paint7_linear)"></path><path d="M55.159 8.784a1 1 0 011.315-.087l7.626 5.832c.07.054.133.116.187.187l5.832 7.626a1 1 0 01-.087 1.315l-.335.335a1 1 0 01-1.48-.074l-5.93-7.248a.995.995 0 00-.141-.14l-7.248-5.93a1 1 0 01-.074-1.481l.335-.335z" fill="url(#benefit-2-ui-kit_svg__paint8_linear)"></path><path d="M71.043 1.823a1 1 0 011.289-.107l2.645 1.89c.09.064.168.143.233.233l1.89 2.645a1 1 0 01-.107 1.288l-.677.677a1 1 0 01-1.415 0l-4.535-4.535a1 1 0 010-1.414l.677-.677z" fill="url(#benefit-2-ui-kit_svg__paint9_linear)"></path><g filter="url(#benefit-2-ui-kit_svg__filter0_i)"><path d="M14.145 24.252c0-.654.383-1.244.974-1.5l23.478-10.176c.4-.173.853-.173 1.253 0l23.478 10.175c.59.256.974.847.974 1.5v18.53c0 7.42-3.718 14.33-9.86 18.322l-14.357 9.334a1.576 1.576 0 01-1.723 0l-14.357-9.334c-6.143-3.992-9.86-10.901-9.86-18.323V24.252z" fill="url(#benefit-2-ui-kit_svg__paint10_radial)"></path></g><path d="M39.223 12.446c-.213 0-.426.043-.626.13L15.119 22.751c-.59.256-.974.847-.974 1.5v18.53c0 7.42 3.717 14.33 9.86 18.322l14.357 9.334c.263.17.562.256.861.256V12.446z" fill="url(#benefit-2-ui-kit_svg__paint11_radial)"></path><path d="M14.145 24.252c0-.654.383-1.244.974-1.5l23.478-10.176c.4-.173.853-.173 1.253 0l23.478 10.175c.59.256.974.847.974 1.5v18.53c0 7.42-3.718 14.33-9.86 18.322l-14.357 9.334a1.576 1.576 0 01-1.723 0l-14.357-9.334c-6.143-3.992-9.86-10.901-9.86-18.323V24.252z" fill="url(#benefit-2-ui-kit_svg__paint12_radial)"></path><defs><linearGradient id="benefit-2-ui-kit_svg__paint0_linear" x1="15.369" y1="15.786" x2="51.064" y2="51.481" gradientUnits="userSpaceOnUse"><stop stop-color="#1197E2"></stop><stop offset="1" stop-color="#48BDFF"></stop></linearGradient><linearGradient id="benefit-2-ui-kit_svg__paint1_linear" x1="16.732" y1="14.422" x2="69.78" y2="67.47" gradientUnits="userSpaceOnUse"><stop stop-color="#DEFFFD" stop-opacity="0.4"></stop><stop offset="1" stop-color="#DEFFFD" stop-opacity="0.16"></stop></linearGradient><linearGradient id="benefit-2-ui-kit_svg__paint2_linear" x1="7.096" y1="10.271" x2="10.164" y2="7.203" gradientUnits="userSpaceOnUse"><stop stop-color="#4A5084"></stop><stop offset="0.414" stop-color="#4A528D"></stop><stop offset="1" stop-color="#2F3565"></stop></linearGradient><linearGradient id="benefit-2-ui-kit_svg__paint3_linear" x1="5.987" y1="22.671" x2="25.061" y2="21.89" gradientUnits="userSpaceOnUse"><stop stop-color="#C8D6F0"></stop><stop offset="1" stop-color="#596AA4"></stop></linearGradient><linearGradient id="benefit-2-ui-kit_svg__paint4_linear" x1="-0.061" y1="6.862" x2="8.801" y2="3.113" gradientUnits="userSpaceOnUse"><stop stop-color="#C8D6F0"></stop><stop offset="1" stop-color="#596AA4"></stop></linearGradient><linearGradient id="benefit-2-ui-kit_svg__paint5_linear" x1="62.719" y1="16.097" x2="27.023" y2="51.792" gradientUnits="userSpaceOnUse"><stop stop-color="#DD405C"></stop><stop offset="1" stop-color="#FF6077"></stop></linearGradient><linearGradient id="benefit-2-ui-kit_svg__paint6_linear" x1="64.082" y1="17.461" x2="11.035" y2="70.508" gradientUnits="userSpaceOnUse"><stop stop-color="#FF94B4" stop-opacity="0.32"></stop><stop offset="1" stop-color="#FF94B4" stop-opacity="0.64"></stop></linearGradient><linearGradient id="benefit-2-ui-kit_svg__paint7_linear" x1="68.234" y1="7.825" x2="71.302" y2="10.892" gradientUnits="userSpaceOnUse"><stop stop-color="#4A5084"></stop><stop offset="0.414" stop-color="#4A528D"></stop><stop offset="1" stop-color="#2F3565"></stop></linearGradient><linearGradient id="benefit-2-ui-kit_svg__paint8_linear" x1="55.834" y1="6.716" x2="56.614" y2="25.79" gradientUnits="userSpaceOnUse"><stop stop-color="#C8D6F0"></stop><stop offset="1" stop-color="#596AA4"></stop></linearGradient><linearGradient id="benefit-2-ui-kit_svg__paint9_linear" x1="71.642" y1="0.667" x2="75.391" y2="9.529" gradientUnits="userSpaceOnUse"><stop stop-color="#C8D6F0"></stop><stop offset="1" stop-color="#596AA4"></stop></linearGradient><radialGradient id="benefit-2-ui-kit_svg__paint10_radial" cx="0" cy="0" r="1" gradientUnits="userSpaceOnUse" gradientTransform="matrix(0 58.6925 -50.1573 0 39.223 12.305)"><stop stop-color="#535CAB"></stop><stop offset="1" stop-color="#1D1C45"></stop></radialGradient><radialGradient id="benefit-2-ui-kit_svg__paint11_radial" cx="0" cy="0" r="1" gradientUnits="userSpaceOnUse" gradientTransform="matrix(0 58.3886 -58.3909 0 39.223 12.305)"><stop stop-color="#C6CBFF" stop-opacity="0.32"></stop><stop offset="1" stop-color="#C6CBFF" stop-opacity="0"></stop></radialGradient><radialGradient id="benefit-2-ui-kit_svg__paint12_radial" cx="0" cy="0" r="1" gradientUnits="userSpaceOnUse" gradientTransform="matrix(.22342 58.69327 -28.2019 .10735 39 12)"><stop stop-color="#A192FF" stop-opacity="0.32"></stop><stop offset="1" stop-color="#A192FF" stop-opacity="0"></stop></radialGradient><filter id="benefit-2-ui-kit_svg__filter0_i" x="14.145" y="12.446" width="50.157" height="58.247" filterUnits="userSpaceOnUse" color-interpolation-filters="sRGB"><feFlood flood-opacity="0" result="BackgroundImageFix"></feFlood><feBlend in="SourceGraphic" in2="BackgroundImageFix" result="shape"></feBlend><feColorMatrix in="SourceAlpha" values="0 0 0 0 0 0 0 0 0 0 0 0 0 0 0 0 0 0 127 0" result="hardAlpha"></feColorMatrix><feOffset></feOffset><feGaussianBlur stdDeviation="4"></feGaussianBlur><feComposite in2="hardAlpha" operator="arithmetic" k2="-1" k3="1"></feComposite><feColorMatrix values="0 0 0 0 0.450938 0 0 0 0 0.498344 0 0 0 0 0.925 0 0 0 0.4 0"></feColorMatrix><feBlend in2="shape" result="effect1_innerShadow"></feBlend></filter></defs></svg>