<svg width="104" height="72" viewBox="0 0 104 72" fill="none" xmlns="http://www.w3.org/2000/svg"><mask id="benefit-3-ui-kit_svg__a" style="mask-type:alpha" maskUnits="userSpaceOnUse" x="21" y="8" width="65" height="64"><ellipse cx="53.345" cy="40" rx="31.766" ry="32" fill="url(#benefit-3-ui-kit_svg__paint0_radial)"></ellipse></mask><g mask="url(#benefit-3-ui-kit_svg__a)"><g filter="url(#benefit-3-ui-kit_svg__filter0_i)"><ellipse cx="53.345" cy="40" rx="31.766" ry="32" fill="url(#benefit-3-ui-kit_svg__paint1_radial)"></ellipse></g><path opacity="0.48" fill-rule="evenodd" clip-rule="evenodd" d="M67.843 15.126l-.132-.445a5.466 5.466 0 014.412-6.964l9.96-1.524c5.097-.78 9.59 3.396 9.185 8.537l-2.016 25.588a7.864 7.864 0 01-9.392 7.09l-1.414-.284a7.613 7.613 0 01-3.9-2.1l-.036-.037a7.403 7.403 0 01-2.076-6.256l.765-5.398v-.703a8 8 0 00-2.322-5.636l-1.375-1.385a7.998 7.998 0 01-1.066-1.332l-2.233-3.5a1.806 1.806 0 01-.283-.97v-.772c0-.572.463-1.035 1.035-1.035.188 0 .374-.052.535-.15l.116-.07a1.52 1.52 0 00.52-2.077l-.11-.184a1.736 1.736 0 01-.173-.393zm-22.13-3.46h-1.919c-.458 0-.903-.152-1.265-.432-1.425-1.105-.85-3.378.93-3.67l7.348-1.212a5.314 5.314 0 016.178 5.243v3.893a1.499 1.499 0 01-2.478 1.134l-1.492-1.289L50.036 13l-.044-.03a7.675 7.675 0 00-4.279-1.303zm3.625 58.815l.298-1.202c.046-.186.106-.368.18-.544L51.36 65l.133-.468a4.634 4.634 0 00-1.346-4.698l-1.632-1.48a5.436 5.436 0 01-1.56-2.477l-.038-.128a5.065 5.065 0 01.194-3.428l.043-.1a4.288 4.288 0 00-.903-4.701l-.205-.207a4.888 4.888 0 00-.673-.566L41.433 44l-3.64-3-1.04-.748a3.07 3.07 0 01-1.276-2.492c0-.283-.04-.565-.116-.837l-.234-.825a6.64 6.64 0 00-.972-2.029 6.637 6.637 0 01-1.183-3.112l-.142-1.29V25l.159-1.282a8 8 0 00-.135-2.746l-.695-3.08a5.617 5.617 0 011.367-5.063l.504-.54a4.656 4.656 0 015.6-.937l.842.45a3.065 3.065 0 011.623 2.704v.356a.859.859 0 001.18.796l1.785-.72a1.374 1.374 0 011.488 2.243l-.73.734a1.72 1.72 0 00-.125 2.282l.164.207a.96.96 0 01.209.598c0 .857 1.038 1.285 1.642.677l.9-.906c.279-.282.659-.44 1.055-.44h.447c.594 0 1.17.207 1.629.585l2.244 1.85a1.886 1.886 0 01.139 2.784l-.806.81c-.2.203-.42.386-.654.549l-4.49 3.109c-.299.207-.563.462-.78.755l-.263.352a2.03 2.03 0 00-.299 1.85l.847 2.558a.86.86 0 01-.818 1.132h-.202c-.368 0-.71-.19-.903-.503l-.678-1.092a2.916 2.916 0 00-2.743-1.367l-.46.043a2.747 2.747 0 00-2.138 4.091l.376.664a6.357 6.357 0 001.733 1.962l4.676 3.482a7.004 7.004 0 004.183 1.386h.307c.452 0 .901-.063 1.336-.188a4.863 4.863 0 013.26.212c.472.204.914.483 1.299.822l1.294 1.14c.512.452 1.08.837 1.69 1.144L62.942 50l1.118.482c.782.338 1.45.896 1.92 1.607l.424.642a2.915 2.915 0 01.034 3.165l-1.869 2.958a8 8 0 01-.67.911l-1.618 1.902L57.647 67l-2.272 2.289a3.074 3.074 0 00-.857 1.701l-.078.512a2.604 2.604 0 11-5.102-1.02z" fill="url(#benefit-3-ui-kit_svg__paint2_radial)"></path><ellipse cx="53.345" cy="40" rx="31.766" ry="32" fill="url(#benefit-3-ui-kit_svg__paint3_radial)"></ellipse></g><path fill-rule="evenodd" clip-rule="evenodd" d="M26.88 22.139a63.62 63.62 0 00-1.796-.023c-4.256.01-7.763.472-10.309 1.348-2.572.884-3.95 2.11-4.37 3.494-.42 1.386.044 3.17 1.691 5.334 1.63 2.143 4.288 4.477 7.822 6.85 7.056 4.739 17.41 9.503 29.385 13.137 11.975 3.634 23.23 5.428 31.73 5.41 4.256-.008 7.763-.472 10.309-1.347 2.572-.885 3.95-2.11 4.37-3.495.42-1.385-.044-3.169-1.69-5.334-1.63-2.142-4.288-4.476-7.822-6.85-.342-.23-.692-.459-1.05-.689 0-.4-.01-.8-.025-1.2 8.196 5.153 12.744 10.411 11.544 14.364-2.234 7.364-23.571 7.407-47.657.098-24.085-7.31-41.799-19.204-39.564-26.568 1.221-4.024 8.145-5.862 18.105-5.51-.23.323-.455.65-.674.98z" fill="url(#benefit-3-ui-kit_svg__paint4_linear)"></path><mask id="benefit-3-ui-kit_svg__b" style="mask-type:alpha" maskUnits="userSpaceOnUse" x="4" y="19" width="100" height="47"><path fill-rule="evenodd" clip-rule="evenodd" d="M15.629 55.513c-.304-.841.394-2.006 1.922-3.397l-7.37-2.227C5.47 54.113 3.21 57.966 4.25 60.844c2.733 7.564 27.223 5.53 54.7-4.545 27.476-10.074 47.535-24.373 44.802-31.937-1.237-3.422-6.926-4.879-15.33-4.516-2.904.125-6.13.468-9.61 1.021a32.037 32.037 0 013.419 5.796c2.502-.363 4.599-.51 6.19-.424 1.905.104 3.088.542 3.378 1.346C93.061 31.08 77.033 40.163 56 47.875c-21.033 7.712-39.108 11.132-40.37 7.638zm-5.447-5.624l7.369 2.227c1.215-1.107 2.957-2.358 5.137-3.703a32.16 32.16 0 01-1.064-6.696c-4.628 2.77-8.51 5.543-11.442 8.172z" fill="url(#benefit-3-ui-kit_svg__paint5_linear)"></path></mask><mask id="benefit-3-ui-kit_svg__c" style="mask-type:alpha" maskUnits="userSpaceOnUse" x="88" y="47" width="15" height="15"><path d="M101.286 47.328a1 1 0 011.157 1.294l-3.942 11.995a.997.997 0 01-1.69.356l-8.365-9.352a1.003 1.003 0 01.534-1.649l12.306-2.644z" fill="url(#benefit-3-ui-kit_svg__paint6_radial)"></path></mask><g mask="url(#benefit-3-ui-kit_svg__c)"><path d="M102.988 46.963L97.961 62.26 87.295 50.334l15.693-3.371z" fill="url(#benefit-3-ui-kit_svg__paint7_radial)"></path><path d="M102.988 46.963L97.961 62.26l-1.304-9.593-9.362-2.333 15.693-3.371z" fill="url(#benefit-3-ui-kit_svg__paint8_linear)"></path><path fill-rule="evenodd" clip-rule="evenodd" d="M102.988 46.963l-15.693 3.371 9.362 2.333 6.331-5.704z" fill="url(#benefit-3-ui-kit_svg__paint9_linear)"></path></g><path d="M11.598 17.695a.555.555 0 01.996.287l.286 3.315a6.66 6.66 0 002.614 4.737l2.653 2.01a.555.555 0 01-.287.995l-3.316.286a6.66 6.66 0 00-4.737 2.614l-2.009 2.653a.555.555 0 01-.995-.287l-.286-3.316a6.66 6.66 0 00-2.615-4.736l-2.652-2.01a.555.555 0 01.287-.995l3.315-.286a6.66 6.66 0 004.737-2.615l2.01-2.652z" fill="#48BDFF"></path><path fill-rule="evenodd" clip-rule="evenodd" d="M12.195 17.497a.546.546 0 00-.597.198L9.59 20.347a6.66 6.66 0 01-4.737 2.615l-3.315.286a.555.555 0 00-.287.995l2.652 2.01a6.66 6.66 0 012.615 4.736l.286 3.316a.546.546 0 00.399.485l4.993-17.293z" fill="url(#benefit-3-ui-kit_svg__paint10_linear)"></path><path fill-rule="evenodd" clip-rule="evenodd" d="M12.594 17.982a.555.555 0 00-.996-.287L9.59 20.347a6.66 6.66 0 01-4.737 2.615l-3.315.286a.547.547 0 00-.486.399l17.294 4.993a.546.546 0 00-.198-.597l-2.653-2.009a6.66 6.66 0 01-2.614-4.737l-.286-3.315z" fill="url(#benefit-3-ui-kit_svg__paint11_linear)"></path><defs><radialGradient id="benefit-3-ui-kit_svg__paint0_radial" cx="0" cy="0" r="1" gradientUnits="userSpaceOnUse" gradientTransform="rotate(81.928 7.856 39.037) scale(31.4224 31.2019)"><stop stop-color="#79BFEF"></stop><stop offset="0.526" stop-color="#3571CA"></stop><stop offset="1" stop-color="#5F89C7"></stop></radialGradient><radialGradient id="benefit-3-ui-kit_svg__paint1_radial" cx="0" cy="0" r="1" gradientUnits="userSpaceOnUse" gradientTransform="matrix(7.94152 46.22224 -45.904 7.88684 45.404 25.778)"><stop stop-color="#7D6FB6"></stop><stop offset="0.437" stop-color="#5A5195"></stop><stop offset="1" stop-color="#41334D"></stop></radialGradient><radialGradient id="benefit-3-ui-kit_svg__paint2_radial" cx="0" cy="0" r="1" gradientUnits="userSpaceOnUse" gradientTransform="rotate(79.228 12.093 45.212) scale(39.8207 35.0702)"><stop stop-color="#A5A4DD"></stop><stop offset="0.49" stop-color="#8984C2"></stop><stop offset="1" stop-color="#3C3B6B"></stop></radialGradient><radialGradient id="benefit-3-ui-kit_svg__paint3_radial" cx="0" cy="0" r="1" gradientUnits="userSpaceOnUse" gradientTransform="matrix(7.94152 46.22224 -45.904 7.88684 45.404 25.778)"><stop stop-color="#6951F9" stop-opacity="0.08"></stop><stop offset="1" stop-color="#6951F9" stop-opacity="0"></stop></radialGradient><radialGradient id="benefit-3-ui-kit_svg__paint6_radial" cx="0" cy="0" r="1" gradientUnits="userSpaceOnUse" gradientTransform="rotate(128.678 37.843 47.76) scale(6.87314 7.82736)"><stop stop-color="#94EA92"></stop><stop offset="1" stop-color="#56C26E"></stop></radialGradient><radialGradient id="benefit-3-ui-kit_svg__paint7_radial" cx="0" cy="0" r="1" gradientUnits="userSpaceOnUse" gradientTransform="rotate(128.678 37.843 47.76) scale(6.87314 7.82736)"><stop stop-color="#94EA92"></stop><stop offset="1" stop-color="#56C26E"></stop></radialGradient><linearGradient id="benefit-3-ui-kit_svg__paint4_linear" x1="6.73" y1="27.571" x2="97.686" y2="55.998" gradientUnits="userSpaceOnUse"><stop stop-color="#C6C6F4" stop-opacity="0.4"></stop><stop offset="1" stop-color="#C6C6F4" stop-opacity="0.08"></stop></linearGradient><linearGradient id="benefit-3-ui-kit_svg__paint5_linear" x1="104.304" y1="20" x2="3.466" y2="64.782" gradientUnits="userSpaceOnUse"><stop stop-color="#73FFF7"></stop><stop offset="0.679" stop-color="#5484BD"></stop><stop offset="1" stop-color="#1E2242"></stop><stop offset="1" stop-color="#1E2242"></stop></linearGradient><linearGradient id="benefit-3-ui-kit_svg__paint8_linear" x1="102.988" y1="46.963" x2="92.594" y2="56.259" gradientUnits="userSpaceOnUse"><stop stop-color="#F0FFC6" stop-opacity="0.08"></stop><stop offset="1" stop-color="#F0FFC6" stop-opacity="0.48"></stop></linearGradient><linearGradient id="benefit-3-ui-kit_svg__paint9_linear" x1="100.321" y1="43.981" x2="89.927" y2="53.278" gradientUnits="userSpaceOnUse"><stop stop-color="#F0FFC6" stop-opacity="0.24"></stop><stop offset="1" stop-color="#F0FFC6" stop-opacity="0.48"></stop></linearGradient><linearGradient id="benefit-3-ui-kit_svg__paint10_linear" x1="16.518" y1="18.745" x2="11.525" y2="36.038" gradientUnits="userSpaceOnUse"><stop stop-color="#DEFFFD" stop-opacity="0.64"></stop><stop offset="1" stop-color="#DEFFFD" stop-opacity="0.16"></stop></linearGradient><linearGradient id="benefit-3-ui-kit_svg__paint11_linear" x1="12.195" y1="17.497" x2="9.698" y2="26.143" gradientUnits="userSpaceOnUse"><stop stop-color="#DEFFFD" stop-opacity="0.08"></stop><stop offset="1" stop-color="#FFF2DE" stop-opacity="0.48"></stop><stop offset="1" stop-color="#DEFFFD" stop-opacity="0.32"></stop></linearGradient><filter id="benefit-3-ui-kit_svg__filter0_i" x="21.579" y="4" width="63.532" height="68" filterUnits="userSpaceOnUse" color-interpolation-filters="sRGB"><feFlood flood-opacity="0" result="BackgroundImageFix"></feFlood><feBlend in="SourceGraphic" in2="BackgroundImageFix" result="shape"></feBlend><feColorMatrix in="SourceAlpha" values="0 0 0 0 0 0 0 0 0 0 0 0 0 0 0 0 0 0 127 0" result="hardAlpha"></feColorMatrix><feOffset dy="-4"></feOffset><feGaussianBlur stdDeviation="16"></feGaussianBlur><feComposite in2="hardAlpha" operator="arithmetic" k2="-1" k3="1"></feComposite><feColorMatrix values="0 0 0 0 0.0143229 0 0 0 0 0.133594 0 0 0 0 0.3125 0 0 0 0.8 0"></feColorMatrix><feBlend in2="shape" result="effect1_innerShadow"></feBlend></filter></defs></svg>