<svg width="72" height="72" viewBox="0 0 72 72" fill="none" xmlns="http://www.w3.org/2000/svg"><mask id="benefit-1-ui-kit_svg__a" style="mask-type:alpha" maskUnits="userSpaceOnUse" x="0" y="10" width="72" height="62"><path d="M14.734 11.813a2 2 0 011.616-.822h39.3a2 2 0 011.616.822l13.777 18.882a2 2 0 01-.129 2.517L37.486 70.347a2 2 0 01-2.972 0L1.086 33.212a2 2 0 01-.13-2.517l13.778-18.883z" fill="url(#benefit-1-ui-kit_svg__paint0_linear)"></path></mask><g mask="url(#benefit-1-ui-kit_svg__a)"><path d="M15.333 10.991h41.334L72 32.005 36 72 0 32.005l15.333-21.014z" fill="url(#benefit-1-ui-kit_svg__paint1_linear)"></path><path d="M15.333 10.991h41.334L72 32.005H0l15.333-21.014z" fill="url(#benefit-1-ui-kit_svg__paint2_linear)"></path><path d="M15.333 10.991h41.334l-7.334 21.014H22.667l-7.334-21.014z" fill="url(#benefit-1-ui-kit_svg__paint3_linear)"></path><path d="M36 10.991l13.333 21.014H22.667L36 10.991z" fill="url(#benefit-1-ui-kit_svg__paint4_linear)"></path><path d="M49.333 32.005L35.999 72 22.666 32.005h26.667z" fill="url(#benefit-1-ui-kit_svg__paint5_linear)"></path><path d="M15.333 10.991h41.334L72 32.005 36 72 0 32.005l15.333-21.014z" fill="url(#benefit-1-ui-kit_svg__paint6_linear)"></path></g><path d="M14.044.435a.663.663 0 011.245 0l1.435 3.793A8.069 8.069 0 0021.319 8.9l3.73 1.459c.57.222.57 1.042 0 1.265l-3.73 1.459a8.069 8.069 0 00-4.595 4.672l-1.435 3.793a.663.663 0 01-1.245 0l-1.434-3.793a8.069 8.069 0 00-4.595-4.672l-3.73-1.459c-.57-.223-.57-1.043 0-1.265l3.73-1.46a8.068 8.068 0 004.595-4.671L14.044.435z" fill="#48BDFF"></path><path fill-rule="evenodd" clip-rule="evenodd" d="M14.666 0a.656.656 0 00-.622.435L12.61 4.228A8.068 8.068 0 018.015 8.9l-3.73 1.459c-.57.223-.57 1.042 0 1.265l3.73 1.459a8.068 8.068 0 014.595 4.672l1.434 3.793c.11.29.366.434.622.435V0z" fill="url(#benefit-1-ui-kit_svg__paint7_linear)"></path><path fill-rule="evenodd" clip-rule="evenodd" d="M15.289.435a.663.663 0 00-1.245 0L12.61 4.228A8.069 8.069 0 018.015 8.9l-3.73 1.459a.667.667 0 00-.428.632h21.62a.667.667 0 00-.428-.632l-3.73-1.46a8.069 8.069 0 01-4.595-4.671L15.289.435z" fill="url(#benefit-1-ui-kit_svg__paint8_linear)"></path><mask id="benefit-1-ui-kit_svg__b" style="mask-type:alpha" maskUnits="userSpaceOnUse" x="49" y="37" width="19" height="29"><path d="M56.932 38.419c.77-1.34 2.701-1.34 3.47 0l7.028 12.25a2 2 0 010 1.99l-7.028 12.25c-.769 1.34-2.7 1.34-3.47 0l-7.027-12.25a2 2 0 010-1.99l7.027-12.25z" fill="url(#benefit-1-ui-kit_svg__paint9_linear)"></path></mask><g mask="url(#benefit-1-ui-kit_svg__b)"><path d="M58.667 35.395l9.334 16.269-9.334 16.269-9.333-16.27 9.333-16.268z" fill="url(#benefit-1-ui-kit_svg__paint10_linear)"></path><path fill-rule="evenodd" clip-rule="evenodd" d="M68 51.664l-9.333-16.27-9.333 16.27h18.667z" fill="url(#benefit-1-ui-kit_svg__paint11_linear)"></path><path fill-rule="evenodd" clip-rule="evenodd" d="M58.668 35.396v-.001l-9.334 16.269 9.333 16.269.001-.001V35.396z" fill="url(#benefit-1-ui-kit_svg__paint12_linear)"></path><path d="M58.667 35.395l9.334 16.269-9.334 16.269-9.333-16.27 9.333-16.268z" fill="url(#benefit-1-ui-kit_svg__paint13_linear)"></path></g><defs><linearGradient id="benefit-1-ui-kit_svg__paint0_linear" x1="36" y1="10.991" x2="36" y2="74.712" gradientUnits="userSpaceOnUse"><stop stop-color="#6951F9"></stop><stop offset="1" stop-color="#442DCA"></stop></linearGradient><linearGradient id="benefit-1-ui-kit_svg__paint1_linear" x1="36" y1="10.991" x2="36" y2="74.712" gradientUnits="userSpaceOnUse"><stop stop-color="#4A5392"></stop><stop offset="1" stop-color="#26293F"></stop></linearGradient><linearGradient id="benefit-1-ui-kit_svg__paint2_linear" x1="36" y1="10.991" x2="36" y2="32.005" gradientUnits="userSpaceOnUse"><stop stop-color="#C6CBFF" stop-opacity="0"></stop><stop offset="1" stop-color="#C6CBFF" stop-opacity="0.24"></stop></linearGradient><linearGradient id="benefit-1-ui-kit_svg__paint3_linear" x1="36" y1="10.991" x2="36" y2="32.005" gradientUnits="userSpaceOnUse"><stop stop-color="#C6CBFF" stop-opacity="0"></stop><stop offset="1" stop-color="#C6CBFF" stop-opacity="0.32"></stop></linearGradient><linearGradient id="benefit-1-ui-kit_svg__paint4_linear" x1="36" y1="10.991" x2="36" y2="32.005" gradientUnits="userSpaceOnUse"><stop stop-color="#C6CBFF" stop-opacity="0"></stop><stop offset="1" stop-color="#C6CBFF" stop-opacity="0.32"></stop></linearGradient><linearGradient id="benefit-1-ui-kit_svg__paint5_linear" x1="35.999" y1="32.005" x2="35.999" y2="74.711" gradientUnits="userSpaceOnUse"><stop stop-color="#C6CBFF" stop-opacity="0.24"></stop><stop offset="1" stop-color="#C6CBFF" stop-opacity="0"></stop></linearGradient><linearGradient id="benefit-1-ui-kit_svg__paint6_linear" x1="0" y1="10.991" x2="72.981" y2="70.803" gradientUnits="userSpaceOnUse"><stop stop-color="#6951F9" stop-opacity="0.2"></stop><stop offset="1" stop-color="#6951F9" stop-opacity="0"></stop></linearGradient><linearGradient id="benefit-1-ui-kit_svg__paint7_linear" x1="20.07" y1="0" x2="20.07" y2="21.983" gradientUnits="userSpaceOnUse"><stop stop-color="#DEFFFD" stop-opacity="0.64"></stop><stop offset="1" stop-color="#DEFFFD" stop-opacity="0.16"></stop></linearGradient><linearGradient id="benefit-1-ui-kit_svg__paint8_linear" x1="14.667" y1="0" x2="14.667" y2="10.991" gradientUnits="userSpaceOnUse"><stop stop-color="#DEFFFD" stop-opacity="0.08"></stop><stop offset="1" stop-color="#FFF2DE" stop-opacity="0.48"></stop><stop offset="1" stop-color="#DEFFFD" stop-opacity="0.32"></stop></linearGradient><linearGradient id="benefit-1-ui-kit_svg__paint9_linear" x1="49.334" y1="35.395" x2="68.469" y2="67.655" gradientUnits="userSpaceOnUse"><stop stop-color="#FF3351"></stop><stop offset="1" stop-color="#AD0355"></stop></linearGradient><linearGradient id="benefit-1-ui-kit_svg__paint10_linear" x1="49.334" y1="35.395" x2="68.469" y2="67.655" gradientUnits="userSpaceOnUse"><stop stop-color="#FF3351"></stop><stop offset="1" stop-color="#AD0355"></stop></linearGradient><linearGradient id="benefit-1-ui-kit_svg__paint11_linear" x1="58.667" y1="35.395" x2="58.667" y2="51.664" gradientUnits="userSpaceOnUse"><stop stop-color="#FFC6E1" stop-opacity="0"></stop><stop offset="1" stop-color="#FFC6E1" stop-opacity="0.24"></stop><stop offset="1" stop-color="#FFC6E1" stop-opacity="0.32"></stop></linearGradient><linearGradient id="benefit-1-ui-kit_svg__paint12_linear" x1="54.001" y1="35.395" x2="54.001" y2="70.139" gradientUnits="userSpaceOnUse"><stop stop-color="#FFC6E1" stop-opacity="0.56"></stop><stop offset="1" stop-color="#FFC6E1" stop-opacity="0.16"></stop></linearGradient><linearGradient id="benefit-1-ui-kit_svg__paint13_linear" x1="49.334" y1="35.395" x2="68.469" y2="67.655" gradientUnits="userSpaceOnUse"><stop stop-color="#FF33EB" stop-opacity="0.24"></stop><stop offset="1" stop-color="#FF33EB" stop-opacity="0"></stop></linearGradient></defs></svg>